<svg width="268" height="37" viewBox="0 0 268 37" fill="none" xmlns="http://www.w3.org/2000/svg">
<path d="M0.000168011 36L11.2322 2.4H16.8242L21.7442 22.968L32.4482 2.4H38.0402L39.8642 36H33.0962L32.0882 16.728L22.2482 35.664H17.6882L13.1762 16.728L6.74417 36H0.000168011ZM63.8668 12H70.4908L67.1308 36H60.4828L60.5068 33.504C59.7548 34.432 58.8508 35.184 57.7948 35.76C56.7388 36.336 55.5548 36.624 54.2428 36.624C52.4508 36.624 50.8188 36.288 49.3468 35.616C47.8908 34.944 46.6588 34.016 45.6508 32.832C44.6428 31.648 43.9148 30.28 43.4668 28.728C43.0188 27.16 42.9228 25.48 43.1788 23.688C43.4188 21.976 43.9548 20.376 44.7868 18.888C45.6348 17.4 46.6988 16.088 47.9788 14.952C49.2588 13.816 50.6828 12.928 52.2508 12.288C53.8348 11.648 55.4828 11.328 57.1948 11.328C58.6668 11.328 59.9468 11.64 61.0348 12.264C62.1228 12.888 63.0428 13.68 63.7948 14.64L63.8668 12ZM54.9388 30.264C56.0428 30.264 57.0748 29.984 58.0348 29.424C58.9948 28.864 59.7948 28.112 60.4348 27.168C61.0908 26.208 61.4988 25.152 61.6588 24C61.8188 22.832 61.7068 21.776 61.3228 20.832C60.9388 19.888 60.3468 19.136 59.5468 18.576C58.7468 18.016 57.8028 17.736 56.7148 17.736C55.6108 17.736 54.5708 18.016 53.5948 18.576C52.6188 19.136 51.8028 19.896 51.1468 20.856C50.4908 21.8 50.0828 22.848 49.9228 24C49.7628 25.152 49.8828 26.208 50.2828 27.168C50.6828 28.112 51.2908 28.864 52.1068 29.424C52.9228 29.984 53.8668 30.264 54.9388 30.264ZM71.9304 36L75.2664 12H81.8904L81.6504 13.776C82.5784 13.008 83.6104 12.408 84.7464 11.976C85.8824 11.544 87.0504 11.328 88.2504 11.328C89.1304 11.328 89.9944 11.456 90.8424 11.712L87.2904 18.408C86.7624 18.168 86.1864 18.048 85.5624 18.048C84.7304 18.048 83.9464 18.248 83.2104 18.648C82.4744 19.048 81.8584 19.592 81.3624 20.28C80.8664 20.952 80.5624 21.712 80.4504 22.56L78.5544 36H71.9304ZM90.1648 36L93.5008 12H100.125L99.8848 13.776C100.813 13.008 101.845 12.408 102.981 11.976C104.117 11.544 105.285 11.328 106.485 11.328C107.365 11.328 108.229 11.456 109.077 11.712L105.525 18.408C104.997 18.168 104.421 18.048 103.797 18.048C102.965 18.048 102.181 18.248 101.445 18.648C100.709 19.048 100.093 19.592 99.5968 20.28C99.1008 20.952 98.7968 21.712 98.6848 22.56L96.7888 36H90.1648ZM117.62 36.624C115.412 36.624 113.476 36.056 111.812 34.92C110.164 33.784 108.932 32.264 108.116 30.36C107.316 28.44 107.076 26.32 107.396 24C107.636 22.24 108.172 20.6 109.004 19.08C109.852 17.544 110.908 16.2 112.172 15.048C113.436 13.88 114.836 12.968 116.372 12.312C117.924 11.656 119.524 11.328 121.172 11.328C123.38 11.328 125.308 11.896 126.956 13.032C128.62 14.168 129.86 15.696 130.676 17.616C131.492 19.536 131.732 21.664 131.396 24C131.156 25.744 130.612 27.376 129.764 28.896C128.932 30.416 127.884 31.76 126.62 32.928C125.356 34.08 123.956 34.984 122.42 35.64C120.884 36.296 119.284 36.624 117.62 36.624ZM118.556 30C119.564 30 120.508 29.728 121.388 29.184C122.284 28.624 123.036 27.888 123.644 26.976C124.252 26.064 124.628 25.072 124.772 24C124.932 22.896 124.828 21.888 124.46 20.976C124.108 20.048 123.564 19.312 122.828 18.768C122.092 18.224 121.228 17.952 120.236 17.952C119.244 17.952 118.3 18.232 117.404 18.792C116.508 19.352 115.756 20.088 115.148 21C114.556 21.912 114.18 22.912 114.02 24C113.86 25.136 113.964 26.16 114.332 27.072C114.7 27.968 115.252 28.68 115.988 29.208C116.724 29.736 117.58 30 118.556 30ZM145.292 36H138.764L134.108 12H140.588L143.396 26.376L150.188 12H156.668L159.428 26.376L166.244 12H172.748L161.348 36H154.844L152.084 21.6L145.292 36ZM176.071 36V12H179.431V15.312C180.295 14.096 181.399 13.128 182.743 12.408C184.087 11.688 185.559 11.328 187.159 11.328C188.967 11.328 190.623 11.776 192.127 12.672C193.631 13.552 194.807 14.728 195.655 16.2C196.503 14.728 197.671 13.552 199.159 12.672C200.647 11.776 202.295 11.328 204.103 11.328C205.911 11.328 207.559 11.768 209.047 12.648C210.535 13.528 211.719 14.712 212.599 16.2C213.479 17.688 213.919 19.336 213.919 21.144V36H210.559V21.888C210.559 20.608 210.247 19.424 209.623 18.336C208.999 17.248 208.159 16.376 207.103 15.72C206.063 15.048 204.903 14.712 203.623 14.712C202.343 14.712 201.175 15.024 200.119 15.648C199.079 16.256 198.247 17.104 197.623 18.192C196.999 19.264 196.687 20.496 196.687 21.888V36H193.327V21.888C193.327 20.496 193.015 19.264 192.391 18.192C191.767 17.104 190.927 16.256 189.871 15.648C188.815 15.024 187.647 14.712 186.367 14.712C185.103 14.712 183.943 15.048 182.887 15.72C181.831 16.376 180.991 17.248 180.367 18.336C179.743 19.424 179.431 20.608 179.431 21.888V36H176.071ZM237.986 12H241.346V36H237.986L237.866 31.536C237.082 33.056 235.986 34.288 234.578 35.232C233.17 36.16 231.49 36.624 229.538 36.624C227.778 36.624 226.13 36.296 224.594 35.64C223.058 34.968 221.706 34.048 220.538 32.88C219.37 31.712 218.458 30.36 217.802 28.824C217.146 27.288 216.818 25.64 216.818 23.88C216.818 22.152 217.138 20.528 217.778 19.008C218.434 17.488 219.33 16.152 220.466 15C221.618 13.848 222.946 12.952 224.45 12.312C225.97 11.656 227.594 11.328 229.322 11.328C231.322 11.328 233.066 11.808 234.554 12.768C236.042 13.712 237.226 14.952 238.106 16.488L237.986 12ZM229.466 33.36C231.178 33.36 232.65 32.944 233.882 32.112C235.114 31.264 236.058 30.128 236.714 28.704C237.386 27.28 237.722 25.712 237.722 24C237.722 22.24 237.386 20.656 236.714 19.248C236.042 17.824 235.09 16.696 233.858 15.864C232.626 15.032 231.162 14.616 229.466 14.616C227.77 14.616 226.218 15.04 224.81 15.888C223.418 16.72 222.306 17.848 221.474 19.272C220.658 20.696 220.25 22.272 220.25 24C220.25 25.744 220.674 27.328 221.522 28.752C222.37 30.16 223.49 31.28 224.882 32.112C226.29 32.944 227.818 33.36 229.466 33.36ZM246.149 12H249.509V36H246.149V12ZM247.853 7.8C247.309 7.8 246.845 7.624 246.461 7.272C246.093 6.904 245.909 6.448 245.909 5.904C245.909 5.36 246.093 4.912 246.461 4.56C246.845 4.192 247.309 4.008 247.853 4.008C248.381 4.008 248.829 4.192 249.197 4.56C249.581 4.912 249.773 5.36 249.773 5.904C249.773 6.448 249.589 6.904 249.221 7.272C248.853 7.624 248.397 7.8 247.853 7.8ZM255.477 36V-2.86102e-06H258.837V36H255.477ZM264.618 36V-2.86102e-06H267.978V36H264.618Z" fill="white"/>
</svg>
